<svg width="1815" height="1815" xmlns="http://www.w3.org/2000/svg" xmlns:xlink="http://www.w3.org/1999/xlink" xml:space="preserve" overflow="hidden"><g transform="translate(-1293 -331)"><path d="M2334.38 1243.83C2295.44 1243.83 2263.88 1275.38 2263.88 1314.28 2263.88 1353.19 2295.44 1384.73 2334.38 1384.73 2373.32 1384.73 2404.88 1353.19 2404.88 1314.28 2404.88 1275.38 2373.32 1243.83 2334.38 1243.83ZM2233.66 992.234 2294.09 992.234C2312.22 992.234 2328.34 1004.31 2332.37 1021.42L2352.51 1090.86C2352.51 1091.87 2353.52 1091.87 2353.52 1092.87L2233.66 1092.87ZM2193.37 951.978 2193.37 1092.87 2193.37 1153.26 2193.37 1314.28 2233.66 1314.28C2233.66 1258.93 2278.98 1213.64 2334.38 1213.64 2389.78 1213.64 2435.1 1258.93 2435.1 1314.28 2457.26 1314.28 2475.39 1296.17 2475.39 1274.03L2475.39 1173.39C2475.39 1160.3 2469.34 1149.23 2459.27 1141.18L2405.89 1100.93C2398.84 1095.89 2393.8 1087.84 2391.79 1079.79L2371.65 1010.35C2361.57 976.132 2329.34 951.978 2294.09 951.978ZM2327.38 448.02C2330.46 448.063 2332.15 448.158 2332.15 448.158 2332.15 448.158 2338.23 555.102 2274.98 618.297 2236.06 658.401 2180.12 670.553 2142.42 674.199L2150.62 702.526 2220.01 702.526C2326.14 702.526 2415.86 720.833 2489.14 757.447 2562.43 794.062 2617.39 844.564 2654.04 908.954 2690.68 973.345 2709 1047.2 2709 1130.53 2709 1207.55 2691.31 1277.94 2655.93 1341.7 2620.55 1405.46 2566.22 1456.9 2492.93 1496.04 2419.65 1535.18 2328.67 1554.75 2220.01 1554.75L2019.1 1554.75 2019.1 2032 1695 2032 1695 1356.16 1700.36 1364.1C1713.12 1376.85 1730.74 1384.73 1750.21 1384.73 1789.15 1384.73 1820.71 1353.19 1820.71 1314.28 1820.71 1275.38 1789.15 1243.83 1750.21 1243.83 1730.74 1243.83 1713.12 1251.72 1700.36 1264.47L1695 1272.41 1695 1230.35 1711.1 1221.58C1723.14 1216.47 1736.36 1213.64 1750.21 1213.64 1805.61 1213.64 1850.93 1258.93 1850.93 1314.28L2153.09 1314.28 2153.09 1173.39 1695 1173.39 1695 1133.13 2153.09 1133.13 2153.09 891.594 1695 891.594 1695 702.526 2075.58 702.526 2059.35 664.026C2015.02 577.244 1937.8 529.297 1936.87 528.366L1974.57 466.387C1979.44 470.033 2057.28 517.429 2110.79 607.359 2118.09 573.331 2132.69 534.442 2161.87 505.276 2216.15 449.981 2305.81 447.721 2327.38 448.02Z" fill-rule="evenodd"/></g></svg>